# xmcd
#
# Track frame offsets:
#	150
#	12697
#	29192
#	42647
#	61262
#	71020
#	85735
#	97542
#	112052
#	127010
#
# Disc length: 1893 seconds
#
# Revision: 0
# Processed by: cddbd v1.5.1PL0 Copyright (c) Steve Scherf et al.
# Submitted via: dBpowerAMP V4.0
#
DISCID=8d07630a
DTITLE=A Cowboy's Prayer - Under The Western Sky
DYEAR=1900
DGENRE=Country
TTITLE0=The End Of The Trail
TTITLE1=Home On The Range
TTITLE2=Ride'em Cowboy
TTITLE3=Jesus Love's Me (This I Know)
TTITLE4=Long Lonesome Highway
TTITLE5=Deep In My Heart
TTITLE6=Cattle Call
TTITLE7=Cool Water
TTITLE8=Softly And Tenderly
TTITLE9=Cowboy's Prayer
EXTD=
EXTT0=
EXTT1=
EXTT2=
EXTT3=
EXTT4=
EXTT5=
EXTT6=
EXTT7=
EXTT8=
EXTT9=
PLAYORDER=
